<svg width="269" height="515" viewBox="0 0 269 515" fill="none" xmlns="http://www.w3.org/2000/svg">
<path d="M51.1541 515C46.7442 515 44.5393 512.803 44.5393 508.408V436.555C44.5393 432.16 46.7442 429.963 51.1541 429.963C55.564 429.963 57.7688 432.16 57.7688 436.555V508.408C57.7688 512.803 55.564 515 51.1541 515ZM51.1541 86.52C46.7442 86.52 44.5393 84.3227 44.5393 79.928V7.41601C44.5393 3.02132 46.7442 0.82402 51.1541 0.82402C55.564 0.82402 57.7688 3.02132 57.7688 7.41601V79.928C57.7688 84.3227 55.564 86.52 51.1541 86.52ZM75.6287 433.259C74.7467 429.304 76.5106 426.887 80.9205 426.008C84.8894 425.129 87.3147 426.887 88.1967 431.282L100.765 502.475C101.206 504.233 100.985 505.881 100.103 507.419C99.2213 508.957 97.6779 509.726 95.473 509.726C95.473 510.166 95.2525 510.386 94.8115 510.386C91.2836 510.386 89.0786 508.408 88.1967 504.453L75.6287 433.259ZM26.018 78.6096C26.9 83.0043 25.1361 85.641 20.7262 86.5199H19.4033C15.8754 86.5199 13.6705 84.7621 12.7885 81.2463L0.220486 8.07515C-0.661463 4.11994 1.10244 1.70289 5.5123 0.823936C9.92216 -0.0549798 12.568 1.70286 13.45 6.09755L26.018 78.6096ZM104.734 424.69C103.411 420.734 104.734 417.878 108.702 416.12C112.671 414.362 115.538 415.68 117.302 420.075L142.438 487.973C143.32 492.367 141.997 495.224 138.469 496.542H135.823C132.295 496.542 130.311 495.224 129.87 492.587L104.734 424.69ZM131.193 408.869C128.988 404.914 129.649 401.837 133.177 399.64C137.146 397.443 140.233 398.322 142.438 402.277L178.819 465.56C181.024 469.515 180.362 472.372 176.834 474.13C175.07 475.008 173.968 475.448 173.527 475.448C170.881 475.448 168.897 474.349 167.574 472.152L131.193 408.869ZM205.278 447.762C203.514 447.762 201.75 446.883 199.986 445.125L153.021 389.093C151.698 387.774 151.147 386.126 151.368 384.149C151.588 382.171 152.36 380.743 153.683 379.864C155.006 378.546 156.659 377.996 158.644 378.216C160.628 378.436 162.061 379.205 162.943 380.523L210.57 436.555C213.216 440.071 212.995 443.147 209.908 445.784C208.585 447.102 207.042 447.762 205.278 447.762ZM235.044 402.936C236.367 403.815 237.139 405.243 237.359 407.221C237.58 409.198 237.029 410.846 235.706 412.165C234.383 413.483 232.619 414.142 230.414 414.142C228.65 414.142 227.327 413.703 226.445 412.824L169.558 365.362C166.471 362.725 166.251 359.648 168.897 356.133C171.984 353.056 175.07 352.837 178.157 355.473L235.044 402.936ZM179.48 331.742C181.244 327.348 184.111 326.469 188.08 329.106L251.581 365.362C255.55 367.559 256.432 370.635 254.227 374.59C252.904 376.788 250.92 377.886 248.274 377.886C246.951 377.886 245.848 377.667 244.966 377.227L181.465 340.312C177.496 338.115 176.834 335.258 179.48 331.742ZM260.842 326.469C265.252 328.227 266.575 331.083 264.811 335.038C263.047 338.115 261.062 339.653 258.857 339.653C257.534 339.653 256.653 339.433 256.212 338.994L186.757 313.944C182.347 312.626 181.024 309.769 182.788 305.374C184.552 301.419 187.418 300.101 191.387 301.419L260.842 326.469ZM263.488 288.235C267.898 289.114 269.661 291.751 268.78 296.146C267.898 299.661 265.693 301.419 262.165 301.419H260.842L187.418 288.235C183.008 287.356 181.244 284.939 182.126 280.984C183.008 276.589 185.654 274.831 190.064 275.71L263.488 288.235ZM261.503 251.32C265.913 251.32 268.118 253.517 268.118 257.912C268.118 262.307 265.913 264.504 261.503 264.504H188.741C184.331 264.504 182.126 262.307 182.126 257.912C182.126 253.517 184.331 251.32 188.741 251.32H261.503ZM268.118 219.678C269 223.634 267.236 226.051 262.826 226.93L190.064 240.114H188.741C185.213 240.114 183.008 238.356 182.126 234.84C181.244 230.445 183.008 227.808 187.418 226.93L260.18 214.405C264.59 213.526 267.236 215.284 268.118 219.678ZM268.118 178.808C269.882 182.763 268.559 185.62 264.149 187.378L190.725 213.746C190.284 214.185 189.623 214.405 188.741 214.405C185.654 214.405 183.449 212.867 182.126 209.79C180.803 206.275 182.126 203.638 186.095 201.88L259.519 174.853C263.488 173.095 266.354 174.413 268.118 178.808ZM258.196 130.686C262.165 128.489 265.252 129.368 267.457 133.323C269.661 137.278 268.779 140.355 264.811 142.552L192.71 184.082C191.828 184.082 191.277 184.191 191.056 184.411C190.836 184.631 190.284 184.741 189.402 184.741C186.757 184.741 184.772 183.642 183.449 181.445C181.685 177.49 182.567 174.413 186.095 172.216L258.196 130.686ZM257.534 76.632C260.18 73.9952 263.267 74.2149 266.795 77.2912C269.441 80.8069 269.221 83.8832 266.134 86.52L193.371 147.166C192.489 148.045 191.166 148.485 189.402 148.485C187.198 148.485 185.434 147.826 184.111 146.507C181.465 142.552 181.906 139.476 185.434 137.278L257.534 76.632ZM266.134 2.14237C269.22 5.6581 269.441 8.73437 266.795 11.3712L194.033 98.3856C192.71 100.143 190.946 101.022 188.741 101.022C186.977 101.022 185.434 100.363 184.111 99.0448C181.465 96.8475 181.244 93.7712 183.449 89.8159L256.873 2.80154C259.96 -0.274719 263.047 -0.494416 266.134 2.14237ZM199.325 1.48319C203.293 3.6805 204.175 6.7568 201.97 10.712L159.636 83.224C158.313 85.4213 156.549 86.52 154.344 86.52C153.021 86.52 151.919 86.0805 151.037 85.2016C146.627 83.4437 145.745 80.5872 148.391 76.632L190.725 4.12C192.489 -0.274688 195.356 -1.15363 199.325 1.48319ZM136.484 4.7792C138.248 0.823989 141.115 -0.494428 145.084 0.823964C148.611 2.14236 149.934 4.9989 149.052 9.39358L121.932 81.9056C121.05 84.9818 119.066 86.5199 115.979 86.5199C115.097 86.5199 114.435 86.3002 113.994 85.8607C110.025 84.5423 108.702 81.6858 110.025 77.2911L136.484 4.7792ZM96.7958 0.823964C101.206 1.70288 102.97 4.11997 102.088 8.07518L88.8582 80.5872C87.9763 84.1029 85.9918 85.8608 82.9049 85.8608H81.5819C77.1721 84.9819 75.4082 82.5648 76.2901 78.6096L88.8582 6.09758C89.7402 1.70289 92.386 -0.0549517 96.7958 0.823964ZM21.3877 425.349C25.7976 426.228 27.5614 428.865 26.6795 433.259L14.1114 505.112C13.2295 508.628 11.0245 510.386 7.49668 510.386H6.17372C1.76386 509.507 -4.2486e-05 506.87 0.881907 502.475L13.45 430.622C14.3319 426.228 16.9779 424.47 21.3877 425.349Z" fill="black"/>
</svg>
