<svg width="420" height="226" viewBox="0 0 420 226" fill="none" xmlns="http://www.w3.org/2000/svg">
<path d="M174.56 162.645C174.136 165.225 173.65 167.835 173.286 170.446C172.921 173.056 172.618 175.666 172.405 178.277C172.284 179.734 172.314 181.191 172.861 182.587C173.771 184.894 175.623 185.744 177.869 184.712C178.78 184.287 179.629 183.71 180.388 183.073C181.117 182.435 181.815 181.676 182.392 180.857C185.457 176.577 188.189 172.054 190.284 167.198C193.349 160.004 195.474 152.476 196.84 144.767C197.265 142.369 197.386 139.91 197.477 137.451C197.508 136.419 197.174 135.296 196.779 134.325C196.324 133.232 195.383 132.656 194.138 132.777C193.835 132.807 193.38 133.02 193.289 133.293C193.106 133.657 193.197 134.143 193.228 134.568C193.258 134.72 193.44 134.902 193.592 134.962C194.867 135.6 194.988 136.784 194.928 137.998C194.837 139.698 194.746 141.428 194.503 143.158C193.713 148.652 192.014 153.933 190.405 159.215C188.25 166.257 184.79 172.601 180.692 178.641C180.449 179.005 180.237 179.43 179.903 179.764C179.053 180.553 178.233 181.403 177.262 182.071C176.23 182.83 175.38 182.375 175.198 181.039C175.107 180.493 175.076 179.946 175.107 179.4C175.137 178.125 175.137 176.85 175.289 175.606C176.048 168.898 177.049 162.28 178.719 155.754C178.871 155.117 179.022 154.51 179.053 153.873C179.113 153.205 178.84 152.628 178.173 152.325C177.474 152.051 176.928 152.294 176.442 152.78C176.23 152.962 176.048 153.174 175.896 153.387C174.287 155.785 172.648 158.183 171.039 160.611C168.915 163.798 166.851 167.016 164.362 169.899C163.967 170.355 163.451 170.719 162.783 171.326C162.783 170.628 162.723 170.263 162.814 169.93C163.694 166.317 164.392 162.645 165.545 159.124C166.638 155.663 167.761 152.203 169.582 149.016C170.19 147.923 170.675 146.74 171.889 146.072C172.527 145.707 172.527 144.949 172.132 144.402C171.738 143.826 171.039 143.552 170.463 143.795C170.068 143.977 169.643 144.19 169.37 144.524C168.733 145.283 168.095 146.102 167.67 146.982C166.335 149.562 164.938 152.112 164.119 154.935C163.148 158.335 162.085 161.704 161.144 165.134C160.689 166.773 160.385 168.503 160.112 170.203C159.991 171.174 159.93 172.206 160.082 173.177C160.355 174.938 161.842 175.575 163.33 174.665C163.846 174.331 164.331 173.906 164.756 173.451C166.82 171.235 168.702 168.928 170.311 166.378C171.404 164.709 172.618 163.13 173.771 161.491C173.923 161.309 174.166 161.188 174.56 160.915C174.56 161.613 174.621 162.129 174.56 162.645Z" fill="black"/>
<path d="M210.954 157.272C209.77 158.759 206.674 161.309 204.975 162.129C202.85 163.161 199.875 163.1 200.331 160.156C203.062 162.129 207.13 158.82 207.737 155.846C208.101 154.176 207.039 152.689 205.43 152.264C203.609 151.809 201.97 152.81 200.756 154.085C198.206 156.695 195.626 162.372 199.815 164.769C203.882 167.137 210.59 161.886 213.018 158.82C214.05 157.515 211.986 155.967 210.954 157.272ZM201.575 157.819C201.545 157.788 201.484 157.727 201.423 157.697C200.938 157.272 202.88 155.542 203.244 155.299C203.578 155.056 204.368 154.51 204.762 154.935C205.066 155.239 204.732 155.997 204.58 156.301C204.307 156.908 203.882 157.485 203.366 157.879C202.668 158.426 202.212 158.304 201.575 157.819Z" fill="black"/>
<path d="M218.725 150.807C217.784 150.564 216.782 150.625 215.841 150.898C216.782 148.409 217.753 145.95 218.877 143.522C219.575 141.974 217.268 140.608 216.57 142.156C213.868 148.105 211.501 154.298 209.71 160.581C209.497 161.34 209.376 162.25 208.981 162.979C208.769 163.434 208.799 163.95 209.315 164.375C211.136 165.862 214.172 165.498 216.205 164.527C218.937 163.161 221.426 160.49 221.882 157.424C222.307 154.692 221.791 151.566 218.725 150.807ZM218.421 159.154C217.571 160.459 216.023 161.795 214.566 162.341C213.99 162.554 212.715 162.827 211.865 162.705C212.593 160.156 213.413 157.636 214.263 155.147C215.082 153.933 217.116 152.658 218.543 153.539C220.212 154.571 219.18 157.97 218.421 159.154Z" fill="black"/>
<path d="M236.906 191.602C236.573 191.754 236.269 192.421 236.299 192.816C236.36 193.18 236.815 193.727 237.21 193.818C237.847 194 238.637 194.03 239.274 193.848C240.731 193.423 242.218 192.998 243.524 192.3C249.594 189.052 255.088 184.955 260.43 180.644C262.859 178.702 265.166 176.577 267.594 174.574C271.874 171.022 275.577 166.925 278.703 162.281C280.282 159.883 281.314 157.303 281.89 154.51C283.529 146.557 279.28 138.878 271.722 136.025C269.354 135.144 266.896 134.659 264.346 134.659C260.036 134.628 255.938 135.539 251.962 137.117C249.958 137.937 248.168 139.06 246.862 140.79C246.437 141.306 246.164 142.035 246.073 142.672C246.013 143.067 246.407 143.674 246.741 143.856C247.105 144.038 247.712 143.917 248.107 143.735C248.441 143.583 248.653 143.158 248.896 142.824C249.958 141.428 251.385 140.426 253.024 139.849C254.815 139.212 256.667 138.757 258.518 138.271C258.913 138.18 259.398 138.392 260.127 138.514C252.508 155.815 246.073 173.299 239.547 190.752C238.606 191.025 237.696 191.207 236.906 191.602ZM263.557 137.967C272.997 136.966 278.126 142.945 279.219 149.593C279.462 151.08 279.401 152.598 278.976 154.085C278.157 157.029 276.973 159.761 275.213 162.281C273.27 165.103 270.993 167.683 268.444 169.99C262.737 175.211 256.849 180.25 250.505 184.772C249.048 185.804 247.53 186.806 246.013 187.777C245.345 188.202 244.616 188.476 243.888 188.779C249.898 171.447 256.242 154.51 263.557 137.967Z" fill="black"/>
<path d="M298.645 157.272C297.462 158.759 294.366 161.309 292.666 162.129C290.541 163.161 287.566 163.1 288.022 160.156C290.754 162.129 294.821 158.82 295.428 155.846C295.792 154.176 294.73 152.689 293.121 152.264C291.3 151.809 289.661 152.81 288.447 154.085C285.897 156.695 283.317 162.372 287.506 164.769C291.573 167.137 298.281 161.886 300.709 158.82C301.741 157.515 299.677 155.967 298.645 157.272ZM289.266 157.819C289.236 157.788 289.175 157.727 289.114 157.697C288.629 157.272 290.571 155.542 290.936 155.299C291.27 155.056 292.059 154.51 292.453 154.935C292.757 155.239 292.423 155.997 292.271 156.301C291.998 156.908 291.573 157.485 291.057 157.879C290.359 158.426 289.904 158.304 289.266 157.819Z" fill="black"/>
<path d="M311.758 157.029C308.935 159.215 305.748 160.55 302.5 161.916C302.348 161.522 302.197 161.157 302.075 160.763C301.529 159.033 301.013 154.905 303.411 153.842C306.386 152.507 303.563 157.394 302.956 158.274C302.015 159.731 304.321 161.066 305.262 159.64C306.537 157.697 309.087 152.871 306.021 151.201C302.834 149.471 299.92 152.841 299.252 155.451C298.767 157.485 298.585 159.154 299.313 161.127C299.526 161.673 299.86 162.281 300.163 162.888C298.342 163.616 296.43 164.496 295.155 165.953C292.969 168.473 293 172.601 296.915 173.117C300.497 173.602 303.745 170.446 303.927 166.955C303.957 165.984 303.745 165.134 303.441 164.284C304.321 163.98 305.05 163.737 305.414 163.555C308.359 162.311 311.09 160.884 313.64 158.911C314.976 157.849 313.094 155.967 311.758 157.029ZM301.165 165.953C301.225 166.712 301.165 167.471 300.922 168.169C300.649 169.049 299.951 169.808 299.222 170.294C298.736 170.597 298.099 170.719 297.553 170.628C296.885 170.506 296.247 169.96 296.156 169.262C296.035 168.533 296.551 167.774 297.037 167.258C297.522 166.773 298.129 166.409 298.767 166.105C299.313 165.862 301.074 165.164 301.074 165.194C301.134 165.437 301.165 165.71 301.165 165.953Z" fill="black"/>
<path d="M317.04 151.566C317.89 151.596 318.648 150.868 318.618 150.048C318.588 149.35 317.92 148.652 317.222 148.621C316.463 148.561 315.674 149.32 315.643 150.169C315.643 150.898 316.281 151.535 317.04 151.566ZM326.328 155.785C322.655 157.667 318.922 159.488 315.279 161.491C313.883 162.25 312.335 163.586 312.912 161.309C313.488 159.033 315.006 156.695 316.19 154.722C317.1 153.266 314.793 151.9 313.913 153.387C312.669 155.421 306.537 164.678 312.062 165.346C313.822 165.559 315.643 164.314 317.1 163.525C320.561 161.613 324.142 159.883 327.663 158.092C329.211 157.303 327.845 155.026 326.328 155.785Z" fill="black"/>
<path d="M350.246 156.695C342.142 162.645 335.039 169.626 328.301 177.002C330.426 173.511 332.52 169.96 334.25 166.257C335.95 162.705 337.316 159.033 338.317 155.269C338.378 154.996 338.469 154.723 338.409 154.449C338.378 154.267 338.317 154.055 338.257 153.842C338.044 153.326 337.741 152.78 337.407 152.416C336.86 151.809 336.071 151.414 335.312 151.201C331.427 150.109 327.238 154.085 325.903 157.333C325.053 159.518 324.567 162.614 327.299 163.495C329.333 164.132 332.247 162.129 334.28 159.336C330.517 169.292 323.171 179.916 317.92 188.658C317.799 188.87 317.768 189.052 317.738 189.265C317.434 190.449 318.952 191.723 319.923 190.6C329.636 179.218 339.471 167.896 351.582 158.972C352.948 157.97 351.612 155.663 350.246 156.695ZM333.977 156.665C333.006 157.819 331.974 158.972 330.851 159.974C330.334 160.429 328.938 161.188 328.301 160.55C327.087 159.397 328.27 157.272 329.151 156.301C330.486 154.814 332.125 153.751 334.189 153.66C334.493 153.66 334.827 153.66 335.1 153.812C335.889 154.146 335.555 154.631 335.191 155.117C334.796 155.633 334.402 156.149 333.977 156.665Z" fill="black"/>
<path d="M368.732 157.819C367.184 158.972 365.575 160.065 363.845 160.975C363.207 161.34 362.57 161.673 361.902 161.977C361.507 162.159 361.325 162.372 361.083 162.068C360.809 161.734 360.809 160.945 360.779 160.52C360.749 159.579 361.022 158.577 361.265 157.697C361.72 155.906 362.57 154.085 362.722 152.234C362.813 151.262 361.507 150.503 360.718 151.08C358.624 152.598 356.59 154.176 354.648 155.937C354.192 156.362 352.978 157.849 351.764 159.154C352.857 156.513 354.253 153.933 355.406 151.444C356.105 149.866 353.798 148.53 353.1 150.078C351.309 154.024 348.82 158.122 347.879 162.372C347.697 163.161 348.243 164.132 349.154 164.071C351.278 163.889 352.219 162.098 353.616 160.641C355.406 158.79 357.349 157.12 359.352 155.512C358.502 158.881 357.41 163.312 359.11 164.861C361.507 167.076 368.276 161.461 370.097 160.125C371.463 159.124 370.128 156.817 368.732 157.819Z" fill="black"/>
<path d="M380.934 157.272C379.75 158.759 376.654 161.309 374.954 162.129C372.829 163.161 369.855 163.1 370.31 160.156C373.042 162.129 377.109 158.82 377.716 155.846C378.08 154.176 377.018 152.689 375.409 152.264C373.588 151.809 371.949 152.81 370.735 154.085C368.185 156.695 365.605 162.372 369.794 164.769C373.861 167.137 380.569 161.886 382.998 158.82C384.03 157.515 381.966 155.967 380.934 157.272ZM371.554 157.819C371.524 157.788 371.463 157.727 371.403 157.697C370.917 157.272 372.86 155.542 373.224 155.299C373.558 155.056 374.347 154.51 374.742 154.935C375.045 155.239 374.711 155.997 374.559 156.301C374.286 156.908 373.861 157.485 373.345 157.879C372.647 158.426 372.192 158.304 371.554 157.819Z" fill="black"/>
<path d="M394.836 153.873C393.348 154.48 392.407 154.814 391.284 153.023C391.102 152.689 391.102 152.082 390.859 151.657C390.404 150.898 389.433 150.837 388.765 151.414C387.369 152.628 386.094 153.964 384.91 155.36C385.578 153.721 386.276 152.082 387.126 150.534C387.945 149.016 385.669 147.68 384.819 149.168C382.33 153.751 380.752 158.668 379.386 163.677C378.991 165.103 381.116 166.105 381.814 164.709C383.635 161.066 386.003 157.879 388.826 155.056C389.099 155.694 389.645 156.271 390.252 156.635C391.952 157.697 393.834 157.151 395.564 156.453C397.112 155.815 396.444 153.235 394.836 153.873Z" fill="black"/>
<path d="M189.702 102.279C189.702 103.784 189.56 105.248 189.275 106.672H175.304C176.118 105.492 176.525 104.13 176.525 102.584V61.6491C178.924 55.0198 183.317 50.0376 189.702 46.7026V102.279ZM188.238 110.271C187.18 112.874 185.594 115.253 183.479 117.409C179.29 121.516 174.247 123.57 168.35 123.57C164.933 123.57 162.147 123.204 159.992 122.472L161.944 109.905C163.449 110.19 164.75 110.332 165.848 110.332C166.54 110.373 167.496 110.352 168.716 110.271H188.238ZM176.525 32.9763H189.702V42.6152C184.415 44.9335 180.022 48.4718 176.525 53.2303V32.9763Z" fill="black"/>
<path d="M218.741 123.57C212.803 123.57 207.76 121.496 203.611 117.348C199.463 113.199 197.389 108.176 197.389 102.279V86.9057C199.829 80.2764 204.242 75.2942 210.627 71.9592V102.157C210.627 104.313 211.379 106.143 212.884 107.648C214.308 109.031 216.077 109.742 218.192 109.783H238.934C237.876 112.63 236.188 115.172 233.87 117.409C229.722 121.516 224.679 123.57 218.741 123.57ZM225.024 106.184C225.756 105.004 226.123 103.662 226.123 102.157V32.9763H240.215V102.279C240.215 103.621 240.093 104.923 239.849 106.184H225.024ZM197.389 32.9763H210.627V67.8718C205.299 70.2307 200.886 73.769 197.389 78.4868V32.9763Z" fill="black"/>
<path d="M263.641 32.9153L281.577 93.0063V93.0673C286.946 87.2921 291.44 80.7034 295.059 73.3013V122.594H280.54L261.994 65.1875C256.544 70.7187 252.03 77.0634 248.451 84.2214V32.9152L263.641 32.9153ZM281.577 32.9153H295.059V63.8454C292.457 72.5896 287.962 80.6831 281.577 88.1258V32.9153ZM261.994 122.594H248.451V94.2874C250.972 85.9906 255.487 78.2428 261.994 71.0441V122.594Z" fill="black"/>
<path d="M315.985 122.594H302.502V62.5032C304.861 55.4265 309.355 50.1597 315.985 46.7026V122.594ZM302.502 32.9763H315.985V42.6152C310.535 45.0148 306.041 48.6752 302.502 53.5963V54.0234V32.9763Z" fill="black"/>
<path d="M352.588 53.1083C352.588 50.9527 351.836 49.1226 350.331 47.6177C348.826 46.1129 346.996 45.3605 344.84 45.3605C342.726 45.3605 340.895 46.1129 339.35 47.6177C337.845 49.1226 337.093 50.9527 337.093 53.1083V67.8718C331.765 70.2307 327.372 73.769 323.915 78.4868V53.3523C323.915 47.3737 326.01 42.3102 330.199 38.1618C334.347 33.9727 339.37 31.8782 345.267 31.8782C351.205 31.8782 356.249 33.9727 360.397 38.1618C364.586 42.3509 366.681 47.4144 366.681 53.3523V102.218C366.681 103.601 366.559 104.923 366.315 106.184H351.429C352.202 104.963 352.588 103.601 352.588 102.096V53.1083ZM365.4 109.783C364.342 112.589 362.675 115.131 360.397 117.409C356.208 121.598 351.165 123.692 345.267 123.692C339.289 123.692 334.225 121.598 330.077 117.409C325.969 113.22 323.915 108.156 323.915 102.218V86.9057C326.315 80.2763 330.707 75.2942 337.093 71.9592V102.096C337.093 104.211 337.845 106.021 339.35 107.526C340.814 108.949 342.522 109.702 344.474 109.783H344.535H344.84H345.206H365.4Z" fill="black"/>
<path d="M404.077 54.5724C404.077 49.3666 401.495 46.7636 396.33 46.7636H388.155C382.705 49.1632 378.211 52.8439 374.672 57.8058V58.1718V32.9763H396.025C403.549 32.9763 409.08 35.0505 412.618 39.1989C415.709 42.8186 417.255 47.8821 417.255 54.3894V67.3837C417.255 73.7284 414.835 79.0969 409.995 83.4894L413.655 97.7648C409.141 93.9417 403.671 90.9728 397.245 88.8579H388.155V122.594H374.672V66.6517C377.072 59.6156 381.566 54.3488 388.155 50.8511V75.4365H396.33C398.485 75.4365 400.315 74.6841 401.82 73.1793C403.325 71.6745 404.077 69.8443 404.077 67.6888L404.077 54.5724ZM420 122.594H405.481L398.343 93.3723C407.494 97.1547 413.655 102.747 416.828 110.149L420 122.594Z" fill="black"/>
<path d="M22.356 225.849C20.4288 225.849 19.4651 224.885 19.4651 222.958V191.447C19.4651 189.52 20.4288 188.557 22.356 188.557C24.2833 188.557 25.2469 189.52 25.2469 191.447V222.958C25.2469 224.885 24.2832 225.849 22.356 225.849ZM22.356 37.9426C20.4288 37.9426 19.4651 36.9789 19.4651 35.0517V3.25222C19.4651 1.32497 20.4288 0.361359 22.356 0.361359C24.2833 0.361359 25.2469 1.32498 25.2469 3.25222V35.0517C25.2469 36.979 24.2832 37.9426 22.356 37.9426ZM33.0522 190.002C32.6668 188.267 33.4376 187.207 35.3649 186.822C37.0994 186.437 38.1594 187.207 38.5448 189.135L44.0375 220.356C44.2302 221.127 44.1338 221.85 43.7484 222.524C43.3629 223.199 42.6884 223.536 41.7248 223.536C41.7248 223.729 41.6284 223.825 41.4357 223.825C39.8939 223.825 38.9303 222.958 38.5448 221.223L33.0522 190.002ZM11.3707 34.4735C11.7562 36.4008 10.9853 37.5571 9.05803 37.9426H8.47986C6.93807 37.9426 5.97444 37.1717 5.589 35.6299L0.0963597 3.5413C-0.28908 1.80678 0.4818 0.746801 2.40905 0.361351C4.3363 -0.0240887 5.49264 0.746792 5.87808 2.67404L11.3707 34.4735ZM45.772 186.244C45.1938 184.509 45.772 183.257 47.5065 182.486C49.241 181.715 50.4937 182.293 51.2646 184.22L62.2499 213.996C62.6353 215.923 62.0572 217.176 60.5154 217.754H59.359C57.8173 217.754 56.95 217.176 56.7573 216.02L45.772 186.244ZM57.3354 179.306C56.3718 177.571 56.6609 176.222 58.2027 175.259C59.9372 174.295 61.2863 174.68 62.2499 176.415L78.1496 204.167C79.1133 205.902 78.8242 207.154 77.2824 207.925C76.5115 208.311 76.0297 208.503 75.837 208.503C74.6806 208.503 73.8134 208.022 73.2352 207.058L57.3354 179.306ZM89.7131 196.362C88.9422 196.362 88.1713 195.976 87.4004 195.205L66.8753 170.633C66.2971 170.055 66.0562 169.332 66.1526 168.465C66.2489 167.598 66.5862 166.971 67.1644 166.586C67.7425 166.008 68.4652 165.767 69.3325 165.863C70.1998 165.96 70.8261 166.297 71.2116 166.875L92.0258 191.447C93.1821 192.989 93.0858 194.338 91.7367 195.495C91.1585 196.073 90.484 196.362 89.7131 196.362ZM102.722 176.704C103.3 177.089 103.637 177.716 103.734 178.583C103.83 179.45 103.589 180.173 103.011 180.751C102.433 181.329 101.662 181.618 100.698 181.618C99.9275 181.618 99.3493 181.426 98.9638 181.04L74.1024 160.226C72.7533 159.07 72.657 157.721 73.8133 156.179C75.1624 154.83 76.5115 154.733 77.8605 155.89L102.722 176.704ZM78.4387 145.483C79.2096 143.555 80.4623 143.17 82.1969 144.326L109.949 160.226C111.684 161.19 112.069 162.539 111.105 164.273C110.527 165.237 109.66 165.719 108.504 165.719C107.926 165.719 107.444 165.622 107.058 165.43L79.306 149.241C77.5715 148.277 77.2824 147.024 78.4387 145.483ZM113.996 143.17C115.924 143.941 116.502 145.194 115.731 146.928C114.96 148.277 114.093 148.952 113.129 148.952C112.551 148.952 112.165 148.855 111.973 148.663L81.6187 137.677C79.6914 137.099 79.1133 135.846 79.8842 133.919C80.6551 132.185 81.9078 131.607 83.6423 132.185L113.996 143.17ZM115.153 126.403C117.08 126.788 117.851 127.945 117.465 129.872C117.08 131.414 116.116 132.185 114.575 132.185H113.996L81.9078 126.403C79.9805 126.018 79.2096 124.958 79.5951 123.223C79.9805 121.296 81.1369 120.525 83.0641 120.91L115.153 126.403ZM114.285 110.214C116.213 110.214 117.176 111.178 117.176 113.105C117.176 115.032 116.213 115.996 114.285 115.996H82.4859C80.5587 115.996 79.5951 115.032 79.5951 113.105C79.5951 111.178 80.5587 110.214 82.4859 110.214H114.285ZM117.176 96.338C117.562 98.0725 116.791 99.1325 114.864 99.5179L83.0641 105.3H82.4859C80.9442 105.3 79.9805 104.529 79.5951 102.987C79.2096 101.06 79.9805 99.9034 81.9078 99.5179L113.707 94.0253C115.635 93.6399 116.791 94.4107 117.176 96.338ZM117.176 78.4146C117.947 80.1492 117.369 81.4019 115.442 82.1728L83.3532 93.7362C83.1605 93.9289 82.8714 94.0253 82.4859 94.0253C81.1369 94.0253 80.1732 93.3508 79.5951 92.0017C79.0169 90.4599 79.5951 89.3036 81.3296 88.5327L113.418 76.6801C115.153 75.9092 116.405 76.4874 117.176 78.4146ZM112.84 57.3113C114.575 56.3477 115.924 56.7332 116.887 58.4677C117.851 60.2022 117.465 61.5513 115.731 62.5149L84.2205 80.7273C83.835 80.7273 83.5941 80.7755 83.4977 80.8719C83.4014 80.9682 83.1605 81.0164 82.775 81.0164C81.6187 81.0164 80.7514 80.5346 80.1732 79.571C79.4023 77.8365 79.7878 76.4874 81.3296 75.5238L112.84 57.3113ZM112.551 33.6063C113.707 32.4499 115.056 32.5463 116.598 33.8954C117.754 35.4372 117.658 36.7862 116.309 37.9426L84.5095 64.5385C84.1241 64.9239 83.5459 65.1167 82.775 65.1167C81.8114 65.1167 81.0405 64.8276 80.4623 64.2494C79.306 62.5149 79.4987 61.1658 81.0405 60.2022L112.551 33.6063ZM116.309 0.93953C117.658 2.48132 117.754 3.83039 116.598 4.98674L84.7986 43.1461C84.2205 43.917 83.4496 44.3025 82.4859 44.3025C81.715 44.3025 81.0405 44.0134 80.4623 43.4352C79.306 42.4716 79.2096 41.1225 80.1732 39.388L112.262 1.22861C113.611 -0.120462 114.96 -0.21681 116.309 0.93953ZM87.1113 0.650437C88.8458 1.61406 89.2313 2.96313 88.2677 4.69765L69.7661 36.4971C69.188 37.4608 68.4171 37.9426 67.4534 37.9426C66.8753 37.9426 66.3935 37.7498 66.008 37.3644C64.0808 36.5935 63.6953 35.3408 64.8517 33.6063L83.3532 1.80679C84.1241 -0.120464 85.3768 -0.505913 87.1113 0.650437ZM59.6481 2.09588C60.419 0.361359 61.6717 -0.216811 63.4062 0.361359C64.948 0.939529 65.5262 2.19224 65.1408 4.11948L53.2882 35.919C52.9028 37.268 52.0355 37.9426 50.6864 37.9426C50.301 37.9426 50.0119 37.8462 49.8192 37.6535C48.0847 37.0753 47.5065 35.8226 48.0847 33.8954L59.6481 2.09588ZM42.3029 0.361359C44.2302 0.746799 45.0011 1.80679 44.6156 3.54131L38.8339 35.3408C38.4485 36.8826 37.5812 37.6535 36.2321 37.6535H35.654C33.7267 37.2681 32.9558 36.2081 33.3413 34.4735L38.8339 2.67405C39.2194 0.7468 40.3757 -0.024081 42.3029 0.361359ZM9.34712 186.533C11.2744 186.918 12.0453 188.075 11.6598 190.002L6.16717 221.512C5.78173 223.054 4.8181 223.825 3.27631 223.825H2.69814C0.770893 223.44 1.27256e-05 222.283 0.385453 220.356L5.87809 188.846C6.26353 186.918 7.41988 186.147 9.34712 186.533Z" fill="black"/>
</svg>
